<?xml version="1.0" encoding="utf-8"?>
<!-- Generator: Adobe Illustrator 16.0.0, SVG Export Plug-In . SVG Version: 6.00 Build 0)  -->
<!DOCTYPE svg PUBLIC "-//W3C//DTD SVG 1.1 Tiny//EN" "http://www.w3.org/Graphics/SVG/1.1/DTD/svg11-tiny.dtd">
<svg version="1.1" baseProfile="tiny" id="Layer_1" xmlns="http://www.w3.org/2000/svg" xmlns:xlink="http://www.w3.org/1999/xlink"
	 x="0px" y="0px" width="32px" height="32px" viewBox="0 0 32 32" xml:space="preserve">
<g id="like">
	<path fill="#ffffff" d="M32,18.094c0-0.287-0.006-0.369-0.014-0.5l-0.012-0.209c-0.029-0.74-0.287-1.54-0.854-2.176
		c0.379-0.704,0.522-1.55,0.389-2.372c-0.217-1.327-0.731-2.196-1.336-2.767c0.263-0.641,0.375-1.535-0.002-2.727
		c-0.226-0.726-0.569-1.842-1.646-2.58c0.17-0.656,0.117-1.303-0.022-1.76c-0.188-0.607-0.418-1.056-0.428-1.076
		C27.361,0.641,26.16,0,24.494,0h-5.467c-2.78,0-5.464,0.572-5.972,0.688C10.685,1.232,9.576,1.498,9,1.641
		C8.981,1.646,8.972,1.648,8.954,1.652C8.859,1.678,8.781,1.697,8.715,1.715C8.701,1.717,8.68,1.723,8.668,1.727
		C8.186,0.719,7.19,0,6,0H3C1.346,0,0,1.346,0,3v16c0,1.654,1.346,3,3,3h3c0.747,0,1.475-0.348,2-0.8l-0.053,0.045
		C8.05,21.29,8.754,21.637,9,21.768c3.355,1.765,3.978,5.241,4,7.256C13.021,30.665,14.367,32,16,32c2.312,0,4.926-3.16,4.926-6.748
		c0-1.502-0.047-2.348-0.25-3.286c4.299-0.114,7.238-0.11,8.488-0.438C31.125,20.968,32,19.357,32,18.094z M7,19
		c0,0.553-0.447,1-1,1H3c-0.553,0-1-0.447-1-1V3c0-0.553,0.447-1,1-1h3c0.553,0,1,0.447,1,1V19z M30,18.094
		c0,0.312-0.094,1.219-1.188,1.531C27.93,19.855,28,20,18,20c0.83,2.471,0.926,2.881,0.926,5.252C18.926,27.878,17.057,30,16,30
		c-0.625,0-0.994-0.521-1-1c-0.041-3.406-1.432-7.555-6-9.445c-0.06-0.025-0.144-0.052-0.206-0.076C8.299,19.33,8,18.906,8,18.438
		L8.007,4.625c0-0.738,0.846-0.881,0.846-0.881c0.261-0.074,0.48-0.148,4.634-1.105C13.557,2.623,16.281,2,19.027,2h5.467
		c1.031,0,1.518,0.328,1.82,0.873c0.006,0.014,0.152,0.314,0.277,0.721C26.707,3.965,26.656,5,25.562,5c-0.875,0-1.568,0-1.568,0
		c-0.277,0-0.5,0.225-0.5,0.5c0,0.277,0.223,0.5,0.5,0.5c0,0,0.912,0,1.631,0c2.127,0,2.322,0.936,2.641,1.945
		C28.508,8.713,28.657,10,26.969,10C26.188,10,25,10,25,10c-0.277,0-0.5,0.225-0.5,0.5c0,0.277,0.223,0.5,0.5,0.5
		c0,0,0.688,0,2.375,0c1.689,0,2.039,1.41,2.163,2.156c0.097,0.6-0.101,1.844-1.601,1.844S26,15,26,15c-0.277,0-0.5,0.225-0.5,0.5
		c0,0.276,0.223,0.5,0.5,0.5c0,0,0.5,0,2,0c1.75,0,1.957,0.971,1.977,1.465C29.99,17.801,30,17.751,30,18.094z"/>
	<path fill="#ffffff" d="M6,4.5C6,3.672,5.328,3,4.5,3S3,3.672,3,4.5S3.672,6,4.5,6S6,5.328,6,4.5z M5,4.5C5,4.775,4.775,5,4.5,5S4,4.775,4,4.5
		S4.225,4,4.5,4S5,4.225,5,4.5z"/>
</g>
</svg>
